<svg width="24" height="23" viewBox="0 0 24 23" fill="none" xmlns="http://www.w3.org/2000/svg">
<g opacity="0.8">
<path d="M18.6857 6.51222L13.6545 1.69972C13.5107 1.56222 13.367 1.49347 13.1514 1.49347H5.96387C5.17324 1.49347 4.52637 2.11222 4.52637 2.86847V19.3685C4.52637 20.1247 5.17324 20.7435 5.96387 20.7435H17.4639C18.2545 20.7435 18.9014 20.1247 18.9014 19.3685V6.99347C18.9014 6.78722 18.8295 6.64972 18.6857 6.51222ZM13.1514 3.14347L17.1764 6.99347H13.1514V3.14347ZM17.4639 19.3685H5.96387V2.86847H11.7139V6.99347C11.7139 7.74972 12.3607 8.36847 13.1514 8.36847H17.4639V19.3685Z" fill="#F5F7FB"/>
<path d="M7.40137 15.931C7.40137 15.5513 7.70917 15.2435 8.08887 15.2435H15.3389C15.7186 15.2435 16.0264 15.5513 16.0264 15.931C16.0264 16.3107 15.7186 16.6185 15.3389 16.6185H8.08887C7.70917 16.6185 7.40137 16.3107 7.40137 15.931Z" fill="#F5F7FB"/>
<path d="M7.40137 11.806C7.40137 11.4263 7.70917 11.1185 8.08887 11.1185H15.3389C15.7186 11.1185 16.0264 11.4263 16.0264 11.806C16.0264 12.1857 15.7186 12.4935 15.3389 12.4935H8.08887C7.70917 12.4935 7.40137 12.1857 7.40137 11.806Z" fill="#F5F7FB"/>
</g>
</svg>
