<svg width="19" height="19" viewBox="0 0 19 19" fill="none" xmlns="http://www.w3.org/2000/svg">
<path d="M4.02842 15.0684C4.07334 15.0684 4.11826 15.0637 4.16318 15.0566L7.94111 14.3652C7.98603 14.3559 8.02871 14.3348 8.06016 14.2996L17.5813 4.36445C17.6022 4.34277 17.6187 4.31702 17.63 4.28866C17.6412 4.26031 17.647 4.22991 17.647 4.19922C17.647 4.16852 17.6412 4.13813 17.63 4.10978C17.6187 4.08142 17.6022 4.05567 17.5813 4.03398L13.8483 0.136328C13.8057 0.0917969 13.7495 0.0683594 13.6889 0.0683594C13.6282 0.0683594 13.5721 0.0917969 13.5294 0.136328L4.0082 10.0715C3.97451 10.1066 3.9543 10.1488 3.94531 10.1957L3.28271 14.1379C3.26086 14.2634 3.26867 14.3927 3.30546 14.5144C3.34225 14.6361 3.40691 14.7466 3.49385 14.8363C3.64209 14.9863 3.82852 15.0684 4.02842 15.0684ZM5.54229 10.9809L13.6889 2.48242L15.3353 4.20039L7.18867 12.6988L5.19189 13.0668L5.54229 10.9809ZM18.0059 17.0371H1.47461C1.07705 17.0371 0.755859 17.3723 0.755859 17.7871V18.6309C0.755859 18.734 0.836719 18.8184 0.935547 18.8184H18.5449C18.6437 18.8184 18.7246 18.734 18.7246 18.6309V17.7871C18.7246 17.3723 18.4034 17.0371 18.0059 17.0371Z" fill="#ED9C87"/>
</svg>
