<svg width="19" height="19" viewBox="0 0 19 19" fill="none" xmlns="http://www.w3.org/2000/svg">
<path d="M6.18391 1.71891H5.99552C6.09913 1.71891 6.18391 1.63414 6.18391 1.53053V1.71891H13.3426V1.53053C13.3426 1.63414 13.4274 1.71891 13.531 1.71891H13.3426V3.41439H15.0381V1.53053C15.0381 0.699274 14.3622 0.0234375 13.531 0.0234375H5.99552C5.16427 0.0234375 4.48843 0.699274 4.48843 1.53053V3.41439H6.18391V1.71891ZM18.0522 3.41439H1.47425C1.05744 3.41439 0.720703 3.75113 0.720703 4.16794V4.92148C0.720703 5.02509 0.805477 5.10987 0.909089 5.10987H2.33141L2.91305 17.4256C2.95073 18.2286 3.61479 18.8621 4.41778 18.8621H15.1087C15.9141 18.8621 16.5758 18.231 16.6134 17.4256L17.1951 5.10987H18.6174C18.721 5.10987 18.8058 5.02509 18.8058 4.92148V4.16794C18.8058 3.75113 18.4691 3.41439 18.0522 3.41439ZM14.9274 17.1666H4.59911L4.02924 5.10987H15.4973L14.9274 17.1666Z" fill="#EF4D23"/>
</svg>
