<svg width="22" height="18" viewBox="0 0 22 18" fill="none" xmlns="http://www.w3.org/2000/svg">
<g opacity="0.8" clip-path="url(#clip0_2_67)">
<path d="M13.5981 8.25388C12.913 8.25388 12.2432 8.05502 11.6735 7.68245C11.1039 7.30988 10.6599 6.78033 10.3977 6.16076C10.1355 5.5412 10.0669 4.85945 10.2005 4.20172C10.3342 3.54399 10.6641 2.93983 11.1486 2.46564C11.6331 1.99145 12.2503 1.66852 12.9223 1.53769C13.5943 1.40686 14.2908 1.474 14.9238 1.73064C15.5568 1.98727 16.0978 2.42186 16.4785 2.97945C16.8591 3.53704 17.0623 4.1926 17.0623 4.86321C17.0623 5.76247 16.6973 6.6249 16.0477 7.26078C15.398 7.89665 14.5169 8.25388 13.5981 8.25388ZM13.5981 3.16787C13.2556 3.16787 12.9207 3.2673 12.6358 3.45359C12.351 3.63987 12.129 3.90465 11.9979 4.21443C11.8668 4.52421 11.8325 4.86509 11.8993 5.19395C11.9662 5.52281 12.1311 5.82489 12.3734 6.06199C12.6156 6.29909 12.9242 6.46055 13.2602 6.52597C13.5962 6.59138 13.9445 6.55781 14.261 6.42949C14.5775 6.30118 14.848 6.08388 15.0383 5.80509C15.2286 5.52629 15.3302 5.19851 15.3302 4.86321C15.3302 4.41358 15.1477 3.98236 14.8229 3.66442C14.4981 3.34649 14.0575 3.16787 13.5981 3.16787ZM6.66981 9.94922C6.15595 9.94922 5.65364 9.80007 5.22638 9.52064C4.79912 9.24121 4.46611 8.84405 4.26947 8.37938C4.07282 7.9147 4.02137 7.40339 4.12162 6.9101C4.22187 6.4168 4.46931 5.96368 4.83267 5.60804C5.19602 5.25239 5.65896 5.01019 6.16295 4.91207C6.66693 4.81395 7.18933 4.86431 7.66407 5.05678C8.13881 5.24926 8.54458 5.5752 8.83007 5.99339C9.11555 6.41159 9.26793 6.90325 9.26793 7.40621C9.26793 8.08066 8.9942 8.72748 8.50696 9.20439C8.01972 9.68129 7.35888 9.94922 6.66981 9.94922ZM6.66981 6.55854C6.49853 6.55854 6.33109 6.60826 6.18867 6.7014C6.04625 6.79454 5.93525 6.92693 5.8697 7.08182C5.80415 7.23671 5.787 7.40715 5.82042 7.57158C5.85383 7.73602 5.93631 7.88706 6.05743 8.0056C6.17855 8.12415 6.33286 8.20489 6.50086 8.23759C6.66885 8.2703 6.84298 8.25351 7.00123 8.18936C7.15948 8.1252 7.29474 8.01655 7.3899 7.87715C7.48506 7.73775 7.53585 7.57387 7.53585 7.40621C7.53585 7.1814 7.44461 6.96579 7.2822 6.80682C7.11978 6.64785 6.8995 6.55854 6.66981 6.55854ZM6.66981 10.7969C7.62954 10.7979 8.56171 11.111 9.31989 11.6869C10.1682 10.8599 11.2476 10.2973 12.4222 10.0699C13.5967 9.84263 14.8138 9.96082 15.9198 10.4096C17.0258 10.8584 17.9713 11.6177 18.637 12.5918C19.3027 13.5658 19.6588 14.711 19.6604 15.8829C19.6604 16.1077 19.5692 16.3233 19.4067 16.4823C19.2443 16.6413 19.024 16.7306 18.7944 16.7306C18.5647 16.7306 18.3444 16.6413 18.182 16.4823C18.0196 16.3233 17.9283 16.1077 17.9283 15.8829C17.9283 14.7588 17.4721 13.6808 16.66 12.8859C15.848 12.0911 14.7466 11.6446 13.5981 11.6446C12.4497 11.6446 11.3483 12.0911 10.5362 12.8859C9.72415 13.6808 9.26793 14.7588 9.26793 15.8829C9.26793 16.1077 9.17669 16.3233 9.01427 16.4823C8.85186 16.6413 8.63158 16.7306 8.40189 16.7306C8.1722 16.7306 7.95192 16.6413 7.78951 16.4823C7.6271 16.3233 7.53585 16.1077 7.53585 15.8829C7.53379 14.8898 7.7901 13.9125 8.28065 13.0432C7.89792 12.7472 7.43779 12.5626 6.9529 12.5106C6.46801 12.4586 5.97795 12.5412 5.5388 12.749C5.09965 12.9569 4.72915 13.2815 4.4697 13.6858C4.21024 14.0901 4.07232 14.5578 4.0717 15.0352C4.0717 15.26 3.98045 15.4756 3.81804 15.6346C3.65563 15.7936 3.43535 15.8829 3.20566 15.8829C2.97597 15.8829 2.75569 15.7936 2.59327 15.6346C2.43086 15.4756 2.33962 15.26 2.33962 15.0352C2.33962 13.9111 2.79583 12.8331 3.6079 12.0383C4.41997 11.2434 5.52137 10.7969 6.66981 10.7969Z" fill="#F5F7FB"/>
</g>
<defs>
<clipPath id="clip0_2_67">
<rect width="22" height="17" fill="white" transform="matrix(-1 0 0 1 22 0.601562)"/>
</clipPath>
</defs>
</svg>
