<svg width="264" height="69" viewBox="0 0 264 69" fill="none" xmlns="http://www.w3.org/2000/svg">
<g clip-path="url(#clip0_29_2)">
<path d="M20.0875 31.3633H16.0565C15.8678 31.3633 15.7148 31.5165 15.7148 31.7054V68.6575C15.7148 68.8465 15.8678 68.9996 16.0565 68.9996H20.0875C20.2762 68.9996 20.4291 68.8465 20.4291 68.6575V31.7054C20.4291 31.5165 20.2762 31.3633 20.0875 31.3633Z" fill="#EF4D23"/>
<path d="M27.8302 31.3633H22.4555C22.2039 31.3633 22 31.5165 22 31.7054V68.6575C22 68.8465 22.2039 68.9996 22.4555 68.9996H27.8302C28.0818 68.9996 28.2857 68.8465 28.2857 68.6575V31.7054C28.2857 31.5165 28.0818 31.3633 27.8302 31.3633Z" fill="#EF4D23"/>
<path d="M29.8574 31.7299C29.8574 31.4234 30.1882 31.2527 30.412 31.4438L34.3143 34.7759C34.4769 34.9148 34.5717 35.1255 34.5717 35.3483V46.6784C34.5717 46.985 34.241 47.1557 34.0171 46.9646L30.1148 43.6325C29.9522 43.4935 29.8574 43.2829 29.8574 43.0601V31.7299Z" fill="#EF4D23"/>
<path d="M42.4277 38.8745C42.4277 39.1504 42.7585 39.304 42.9823 39.132L46.8846 36.1331C47.0473 36.008 47.142 35.8185 47.142 35.618V25.4208C47.142 25.1449 46.8113 24.9913 46.5874 25.1633L42.6851 28.1622C42.5225 28.2872 42.4277 28.4768 42.4277 28.6773V38.8745Z" fill="#EF4D23"/>
<path d="M36.1426 37.9667C36.1426 37.6908 36.5836 37.5372 36.882 37.7092L42.0851 40.7081C42.3019 40.8331 42.4283 41.0227 42.4283 41.2232V51.4204C42.4283 51.6963 41.9873 51.8499 41.6889 51.6779L36.4857 48.679C36.2689 48.5539 36.1426 48.3644 36.1426 48.1639V37.9667Z" fill="#EF4D23"/>
<path d="M48.7148 34.1335C48.7148 34.4401 49.0456 34.6108 49.2694 34.4197L53.1718 31.0875C53.3344 30.9486 53.4291 30.738 53.4291 30.5152V19.185C53.4291 18.8784 53.0984 18.7078 52.8746 18.8988L48.9722 22.231C48.8096 22.3699 48.7148 22.5806 48.7148 22.8034V34.1335Z" fill="#EF4D23"/>
<path d="M67.2301 17.25H63.199C63.0104 17.25 62.8574 17.403 62.8574 17.5918V68.6582C62.8574 68.847 63.0104 69 63.199 69H67.2301C67.4188 69 67.5717 68.847 67.5717 68.6582V17.5918C67.5717 17.403 67.4188 17.25 67.2301 17.25Z" fill="#EF4D23"/>
<path d="M60.9449 17.25H56.9139C56.7252 17.25 56.5723 17.403 56.5723 17.5918V68.6582C56.5723 68.847 56.7252 69 56.9139 69H60.9449C61.1336 69 61.2866 68.847 61.2866 68.6582V17.5918C61.2866 17.403 61.1336 17.25 60.9449 17.25Z" fill="#EF4D23"/>
<path d="M78.0108 69.0002C77.7541 69.0002 77.5134 68.9061 77.2888 68.7179C77.0963 68.5297 77 68.2945 77 68.0122C77 67.8868 77.0321 67.7456 77.0963 67.5888L88.6969 37.2445C88.7932 36.9309 88.9697 36.6643 89.2264 36.4447C89.5152 36.1938 89.9003 36.0684 90.3817 36.0684H95.6285C96.1098 36.0684 96.4789 36.1938 96.7356 36.4447C96.9923 36.6643 97.1848 36.9309 97.3132 37.2445L108.914 67.5888C108.946 67.7456 108.962 67.8868 108.962 68.0122C108.962 68.2945 108.866 68.5297 108.673 68.7179C108.481 68.9061 108.256 69.0002 107.999 69.0002H103.811C103.362 69.0002 103.025 68.9061 102.801 68.7179C102.608 68.4984 102.48 68.2945 102.416 68.1063L100.153 62.3668H85.8569L83.5946 68.1063C83.5304 68.2945 83.386 68.4984 83.1613 68.7179C82.9688 68.9061 82.6479 69.0002 82.1986 69.0002H78.0108ZM87.5417 56.9565H98.4685L92.981 42.4195L87.5417 56.9565ZM114.611 69.0002C114.29 69.0002 114.017 68.8904 113.793 68.6709C113.568 68.4513 113.456 68.1847 113.456 67.8711V37.2445C113.456 36.8995 113.568 36.6172 113.793 36.3977C114.017 36.1781 114.29 36.0684 114.611 36.0684H127.078C130.961 36.0684 134.026 36.9465 136.272 38.7029C138.518 40.4593 139.641 43.0154 139.641 46.3713C139.641 48.6922 139.048 50.6211 137.86 52.1579C136.705 53.6947 135.149 54.8081 133.191 55.4981L140.219 67.4947C140.315 67.6829 140.364 67.8554 140.364 68.0122C140.364 68.2945 140.251 68.5297 140.027 68.7179C139.834 68.9061 139.609 69.0002 139.353 69.0002H134.972C134.427 69.0002 134.01 68.859 133.721 68.5768C133.432 68.2945 133.207 68.0122 133.047 67.73L126.837 56.5802H120.147V67.8711C120.147 68.1847 120.034 68.4513 119.81 68.6709C119.617 68.8904 119.344 69.0002 118.991 69.0002H114.611ZM120.147 51.264H126.934C128.891 51.264 130.351 50.8406 131.314 49.9938C132.277 49.1156 132.758 47.8925 132.758 46.3243C132.758 44.7561 132.277 43.5329 131.314 42.6547C130.383 41.7452 128.923 41.2904 126.934 41.2904H120.147V51.264ZM147.047 69.0002C146.694 69.0002 146.405 68.8904 146.18 68.6709C145.956 68.4513 145.843 68.1847 145.843 67.8711V37.2445C145.843 36.8995 145.956 36.6172 146.18 36.3977C146.405 36.1781 146.694 36.0684 147.047 36.0684H150.85C151.299 36.0684 151.636 36.1938 151.86 36.4447C152.085 36.6643 152.229 36.8368 152.294 36.9622L161.584 53.8986L170.97 36.9622C171.034 36.8368 171.179 36.6643 171.403 36.4447C171.628 36.1938 171.965 36.0684 172.414 36.0684H176.169C176.522 36.0684 176.811 36.1781 177.035 36.3977C177.26 36.6172 177.372 36.8995 177.372 37.2445V67.8711C177.372 68.1847 177.26 68.4513 177.035 68.6709C176.811 68.8904 176.522 69.0002 176.169 69.0002H172.126C171.773 69.0002 171.484 68.8904 171.259 68.6709C171.067 68.4513 170.97 68.1847 170.97 67.8711V47.5004L164.231 60.0615C164.071 60.3438 163.862 60.5947 163.605 60.8143C163.349 61.0025 163.012 61.0965 162.595 61.0965H160.621C160.172 61.0965 159.819 61.0025 159.562 60.8143C159.337 60.5947 159.145 60.3438 158.984 60.0615L152.245 47.5004V67.8711C152.245 68.1847 152.133 68.4513 151.909 68.6709C151.684 68.8904 151.411 69.0002 151.09 69.0002H147.047ZM182.79 69.0002C182.533 69.0002 182.293 68.9061 182.068 68.7179C181.876 68.5297 181.779 68.2945 181.779 68.0122C181.779 67.8868 181.811 67.7456 181.876 67.5888L193.476 37.2445C193.573 36.9309 193.749 36.6643 194.006 36.4447C194.295 36.1938 194.68 36.0684 195.161 36.0684H200.408C200.889 36.0684 201.258 36.1938 201.515 36.4447C201.772 36.6643 201.964 36.9309 202.093 37.2445L213.693 67.5888C213.725 67.7456 213.741 67.8868 213.741 68.0122C213.741 68.2945 213.645 68.5297 213.453 68.7179C213.26 68.9061 213.035 69.0002 212.779 69.0002H208.591C208.142 69.0002 207.805 68.9061 207.58 68.7179C207.387 68.4984 207.259 68.2945 207.195 68.1063L204.933 62.3668H190.636L188.374 68.1063C188.31 68.2945 188.165 68.4984 187.941 68.7179C187.748 68.9061 187.427 69.0002 186.978 69.0002H182.79ZM192.321 56.9565H203.248L197.76 42.4195L192.321 56.9565ZM219.39 69.0002C219.069 69.0002 218.797 68.8904 218.572 68.6709C218.347 68.4513 218.235 68.1847 218.235 67.8711V37.2445C218.235 36.8995 218.347 36.6172 218.572 36.3977C218.797 36.1781 219.069 36.0684 219.39 36.0684H231.857C235.74 36.0684 238.805 36.9465 241.051 38.7029C243.298 40.4593 244.421 43.0154 244.421 46.3713C244.421 48.6922 243.827 50.6211 242.64 52.1579C241.485 53.6947 239.928 54.8081 237.971 55.4981L244.998 67.4947C245.095 67.6829 245.143 67.8554 245.143 68.0122C245.143 68.2945 245.031 68.5297 244.806 68.7179C244.613 68.9061 244.389 69.0002 244.132 69.0002H239.752C239.206 69.0002 238.789 68.859 238.5 68.5768C238.211 68.2945 237.987 68.0122 237.826 67.73L231.617 56.5802H224.926V67.8711C224.926 68.1847 224.814 68.4513 224.589 68.6709C224.396 68.8904 224.124 69.0002 223.771 69.0002H219.39ZM224.926 51.264H231.713C233.671 51.264 235.131 50.8406 236.093 49.9938C237.056 49.1156 237.537 47.8925 237.537 46.3243C237.537 44.7561 237.056 43.5329 236.093 42.6547C235.163 41.7452 233.703 41.2904 231.713 41.2904H224.926V51.264Z" fill="black"/>
</g>
<defs>
<clipPath id="clip0_29_2">
<rect width="264" height="69" fill="white"/>
</clipPath>
</defs>
</svg>
