<svg width="161" height="42" viewBox="0 0 161 42" fill="none" xmlns="http://www.w3.org/2000/svg">
<g clip-path="url(#clip0_2_55)">
<path d="M12.25 19.0909H9.79165C9.67659 19.0909 9.58331 19.1841 9.58331 19.2991V41.7917C9.58331 41.9067 9.67659 42 9.79165 42H12.25C12.365 42 12.4583 41.9067 12.4583 41.7917V19.2991C12.4583 19.1841 12.365 19.0909 12.25 19.0909Z" fill="white"/>
<path d="M16.9722 19.0909H13.6945C13.5411 19.0909 13.4167 19.1841 13.4167 19.2991V41.7917C13.4167 41.9067 13.5411 42 13.6945 42H16.9722C17.1257 42 17.25 41.9067 17.25 41.7917V19.2991C17.25 19.1841 17.1257 19.0909 16.9722 19.0909Z" fill="white"/>
<path d="M18.2083 19.3141C18.2083 19.1274 18.41 19.0236 18.5465 19.1399L20.9264 21.1681C21.0255 21.2527 21.0833 21.3809 21.0833 21.5165V28.4131C21.0833 28.5998 20.8816 28.7037 20.7451 28.5873L18.3653 26.5591C18.2661 26.4745 18.2083 26.3463 18.2083 26.2107V19.3141Z" fill="white"/>
<path d="M25.875 23.6627C25.875 23.8307 26.0767 23.9242 26.2132 23.8195L28.593 21.9941C28.6922 21.918 28.75 21.8026 28.75 21.6805V15.4736C28.75 15.3056 28.5483 15.2121 28.4118 15.3168L26.032 17.1422C25.9328 17.2183 25.875 17.3337 25.875 17.4558V23.6627Z" fill="white"/>
<path d="M22.0417 23.11C22.0417 22.942 22.3106 22.8485 22.4926 22.9532L25.6657 24.7787C25.798 24.8548 25.875 24.9702 25.875 25.0922V31.2992C25.875 31.4671 25.6061 31.5606 25.4241 31.4559L22.251 29.6305C22.1187 29.5544 22.0417 29.439 22.0417 29.3169V23.11Z" fill="white"/>
<path d="M29.7083 20.7768C29.7083 20.9634 29.91 21.0673 30.0465 20.951L32.4264 18.9227C32.5255 18.8382 32.5833 18.7099 32.5833 18.5743V11.6777C32.5833 11.4911 32.3816 11.3872 32.2451 11.5035L29.8653 13.5318C29.7661 13.6163 29.7083 13.7446 29.7083 13.8802V20.7768Z" fill="white"/>
<path d="M41 10.5H38.5416C38.4266 10.5 38.3333 10.5932 38.3333 10.7081V41.7919C38.3333 41.9068 38.4266 42 38.5416 42H41C41.115 42 41.2083 41.9068 41.2083 41.7919V10.7081C41.2083 10.5932 41.115 10.5 41 10.5Z" fill="white"/>
<path d="M37.1667 10.5H34.7083C34.5933 10.5 34.5 10.5932 34.5 10.7081V41.7919C34.5 41.9068 34.5933 42 34.7083 42H37.1667C37.2817 42 37.375 41.9068 37.375 41.7919V10.7081C37.375 10.5932 37.2817 10.5 37.1667 10.5Z" fill="white"/>
<path d="M47.5748 42C47.4182 42 47.2714 41.9427 47.1344 41.8282C47.017 41.7136 46.9583 41.5704 46.9583 41.3986C46.9583 41.3223 46.9779 41.2363 47.017 41.1409L54.0917 22.6704C54.1504 22.4795 54.258 22.3173 54.4146 22.1836C54.5907 22.0309 54.8256 21.9545 55.1191 21.9545H58.3188C58.6124 21.9545 58.8375 22.0309 58.994 22.1836C59.1506 22.3173 59.268 22.4795 59.3463 22.6704L66.4209 41.1409C66.4405 41.2363 66.4503 41.3223 66.4503 41.3986C66.4503 41.5704 66.3916 41.7136 66.2742 41.8282C66.1567 41.9427 66.0197 42 65.8632 42H63.3093C63.0353 42 62.8298 41.9427 62.6928 41.8282C62.5754 41.6945 62.4971 41.5704 62.458 41.4559L61.0783 37.9623H52.3597L50.98 41.4559C50.9409 41.5704 50.8528 41.6945 50.7158 41.8282C50.5984 41.9427 50.4027 42 50.1287 42H47.5748ZM53.3871 34.6691H60.0508L56.7043 25.8204L53.3871 34.6691ZM69.8953 42C69.6996 42 69.5333 41.9332 69.3963 41.7995C69.2593 41.6659 69.1908 41.5036 69.1908 41.3127V22.6704C69.1908 22.4604 69.2593 22.2886 69.3963 22.155C69.5333 22.0213 69.6996 21.9545 69.8953 21.9545H77.4984C79.8664 21.9545 81.7353 22.4891 83.1052 23.5582C84.4752 24.6273 85.1601 26.1832 85.1601 28.2259C85.1601 29.6386 84.7981 30.8127 84.074 31.7482C83.3694 32.6836 82.4203 33.3613 81.2265 33.7813L85.5124 41.0836C85.5711 41.1982 85.6005 41.3032 85.6005 41.3986C85.6005 41.5704 85.532 41.7136 85.395 41.8282C85.2775 41.9427 85.1406 42 84.984 42H82.3126C81.98 42 81.7255 41.9141 81.5494 41.7423C81.3733 41.5704 81.2363 41.3986 81.1384 41.2268L77.3516 34.44H73.2712V41.3127C73.2712 41.5036 73.2027 41.6659 73.0657 41.7995C72.9483 41.9332 72.7819 42 72.5667 42H69.8953ZM73.2712 31.2041H77.4103C78.6041 31.2041 79.4945 30.9463 80.0816 30.4309C80.6687 29.8963 80.9623 29.1518 80.9623 28.1973C80.9623 27.2427 80.6687 26.4982 80.0816 25.9636C79.5141 25.41 78.6237 25.1332 77.4103 25.1332H73.2712V31.2041ZM89.6763 42C89.461 42 89.2849 41.9332 89.1479 41.7995C89.0109 41.6659 88.9424 41.5036 88.9424 41.3127V22.6704C88.9424 22.4604 89.0109 22.2886 89.1479 22.155C89.2849 22.0213 89.461 21.9545 89.6763 21.9545H91.9954C92.2693 21.9545 92.4748 22.0309 92.6118 22.1836C92.7488 22.3173 92.8369 22.4223 92.876 22.4986L98.5416 32.8077L104.266 22.4986C104.305 22.4223 104.393 22.3173 104.53 22.1836C104.667 22.0309 104.873 21.9545 105.147 21.9545H107.436C107.652 21.9545 107.828 22.0213 107.965 22.155C108.102 22.2886 108.17 22.4604 108.17 22.6704V41.3127C108.17 41.5036 108.102 41.6659 107.965 41.7995C107.828 41.9332 107.652 42 107.436 42H104.97C104.755 42 104.579 41.9332 104.442 41.7995C104.325 41.6659 104.266 41.5036 104.266 41.3127V28.9132L100.156 36.5591C100.058 36.7309 99.9311 36.8836 99.7745 37.0173C99.618 37.1318 99.4125 37.1891 99.1581 37.1891H97.9545C97.6805 37.1891 97.4653 37.1318 97.3087 37.0173C97.1717 36.8836 97.0543 36.7309 96.9564 36.5591L92.8467 28.9132V41.3127C92.8467 41.5036 92.7782 41.6659 92.6412 41.7995C92.5042 41.9332 92.3378 42 92.1421 42H89.6763ZM111.474 42C111.318 42 111.171 41.9427 111.034 41.8282C110.917 41.7136 110.858 41.5704 110.858 41.3986C110.858 41.3223 110.877 41.2363 110.917 41.1409L117.991 22.6704C118.05 22.4795 118.158 22.3173 118.314 22.1836C118.49 22.0309 118.725 21.9545 119.019 21.9545H122.218C122.512 21.9545 122.737 22.0309 122.894 22.1836C123.05 22.3173 123.168 22.4795 123.246 22.6704L130.32 41.1409C130.34 41.2363 130.35 41.3223 130.35 41.3986C130.35 41.5704 130.291 41.7136 130.174 41.8282C130.056 41.9427 129.919 42 129.763 42H127.209C126.935 42 126.729 41.9427 126.592 41.8282C126.475 41.6945 126.397 41.5704 126.357 41.4559L124.978 37.9623H116.259L114.88 41.4559C114.84 41.5704 114.752 41.6945 114.615 41.8282C114.498 41.9427 114.302 42 114.028 42H111.474ZM117.287 34.6691H123.95L120.604 25.8204L117.287 34.6691ZM133.795 42C133.599 42 133.433 41.9332 133.296 41.7995C133.159 41.6659 133.09 41.5036 133.09 41.3127V22.6704C133.09 22.4604 133.159 22.2886 133.296 22.155C133.433 22.0213 133.599 21.9545 133.795 21.9545H141.398C143.766 21.9545 145.635 22.4891 147.005 23.5582C148.375 24.6273 149.06 26.1832 149.06 28.2259C149.06 29.6386 148.698 30.8127 147.974 31.7482C147.269 32.6836 146.32 33.3613 145.126 33.7813L149.412 41.0836C149.471 41.1982 149.5 41.3032 149.5 41.3986C149.5 41.5704 149.431 41.7136 149.295 41.8282C149.177 41.9427 149.04 42 148.884 42H146.212C145.879 42 145.625 41.9141 145.449 41.7423C145.273 41.5704 145.136 41.3986 145.038 41.2268L141.251 34.44H137.171V41.3127C137.171 41.5036 137.102 41.6659 136.965 41.7995C136.848 41.9332 136.681 42 136.466 42H133.795ZM137.171 31.2041H141.31C142.504 31.2041 143.394 30.9463 143.981 30.4309C144.568 29.8963 144.862 29.1518 144.862 28.1973C144.862 27.2427 144.568 26.4982 143.981 25.9636C143.414 25.41 142.523 25.1332 141.31 25.1332H137.171V31.2041Z" fill="white"/>
</g>
<defs>
<clipPath id="clip0_2_55">
<rect width="161" height="42" fill="white"/>
</clipPath>
</defs>
</svg>
