<svg width="20" height="17" viewBox="0 0 20 17" fill="none" xmlns="http://www.w3.org/2000/svg">
<path d="M6.27637 6.93262H2.15137C1.78682 6.93221 1.43732 6.78721 1.17955 6.52944C0.921774 6.27166 0.776777 5.92216 0.776367 5.55762V1.43262C0.776777 1.06807 0.921774 0.718572 1.17955 0.460798C1.43732 0.203024 1.78682 0.0580266 2.15137 0.0576172H6.27637C6.64091 0.0580266 6.99041 0.203024 7.24819 0.460798C7.50596 0.718572 7.65096 1.06807 7.65137 1.43262V2.80762H8.33887C9.06796 2.80844 9.76696 3.09843 10.2825 3.61398C10.7981 4.12953 11.088 4.82852 11.0889 5.55762V7.62012H13.1514V6.58887C13.1518 6.22432 13.2968 5.87482 13.5545 5.61705C13.8123 5.35927 14.1618 5.21428 14.5264 5.21387H17.9639C18.3284 5.21428 18.6779 5.35927 18.9357 5.61705C19.1935 5.87482 19.3385 6.22432 19.3389 6.58887V10.0264C19.3385 10.3909 19.1935 10.7404 18.9357 10.9982C18.6779 11.256 18.3284 11.401 17.9639 11.4014H14.5264C14.1618 11.401 13.8123 11.256 13.5545 10.9982C13.2968 10.7404 13.1518 10.3909 13.1514 10.0264V8.99512H11.0889V11.0576C11.088 11.7867 10.7981 12.4857 10.2825 13.0013C9.76696 13.5168 9.06796 13.8068 8.33887 13.8076H7.65137V15.1826C7.65096 15.5472 7.50596 15.8967 7.24819 16.1544C6.99041 16.4122 6.64091 16.5572 6.27637 16.5576H2.15137C1.78682 16.5572 1.43732 16.4122 1.17955 16.1544C0.921774 15.8967 0.776777 15.5472 0.776367 15.1826V11.0576C0.776777 10.6931 0.921774 10.3436 1.17955 10.0858C1.43732 9.82802 1.78682 9.68303 2.15137 9.68262H6.27637C6.64091 9.68303 6.99041 9.82802 7.24819 10.0858C7.50596 10.3436 7.65096 10.6931 7.65137 11.0576V12.4326H8.33887C8.70341 12.4322 9.05291 12.2872 9.31069 12.0294C9.56846 11.7717 9.71346 11.4222 9.71387 11.0576V5.55762C9.71346 5.19307 9.56846 4.84357 9.31069 4.5858C9.05291 4.32802 8.70341 4.18303 8.33887 4.18262H7.65137V5.55762C7.65096 5.92216 7.50596 6.27166 7.24819 6.52944C6.99041 6.78721 6.64091 6.93221 6.27637 6.93262ZM14.5264 10.0264H17.9639V6.58887H14.5264L14.5259 8.29937C14.5259 8.30212 14.5264 8.30487 14.5264 8.30762C14.5264 8.31045 14.5259 8.31312 14.5259 8.31595L14.5255 10.0264H14.5264ZM6.27637 11.0576H2.15137L2.15051 15.1826H6.27637V11.0576ZM6.27637 1.43262H2.15137L2.15051 5.55762H6.27637V1.43262Z" fill="white"/>
</svg>
