<svg width="20" height="21" viewBox="0 0 20 21" fill="none" xmlns="http://www.w3.org/2000/svg">
<g opacity="0.8">
<path d="M6.66669 10.8584H5.00002V14.1917H6.66669V10.8584Z" fill="#F5F7FB"/>
<path d="M3.33331 6.69173V5.02507C3.33331 4.1059 4.08081 3.3584 4.99998 3.3584H15.8333C17.2116 3.3584 18.3333 4.48007 18.3333 5.8584V15.8584C18.3333 17.6926 16.8383 18.3584 15.8333 18.3584H3.33331C2.41415 18.3584 1.66665 17.6109 1.66665 16.6917V8.3584C1.66665 7.43923 2.41415 6.69173 3.33331 6.69173ZM15.8333 5.02507H4.99998V6.69173H15.8333C16.0479 6.68213 16.2505 6.59014 16.3989 6.43491C16.5474 6.27968 16.6302 6.07318 16.6302 5.8584C16.6302 5.64362 16.5474 5.43711 16.3989 5.28188C16.2505 5.12665 16.0479 5.03466 15.8333 5.02507V5.02507ZM3.33331 16.6917H15.8233C16.2083 16.6817 16.6666 16.5292 16.6666 15.8584V8.20423C16.405 8.2984 16.1275 8.3584 15.8333 8.3584H3.33331V16.6917Z" fill="#F5F7FB"/>
</g>
</svg>
